<svg width="581" height="110" viewBox="0 0 581 110" fill="none" xmlns="http://www.w3.org/2000/svg">
<path d="M25.5825 9.272C27.1185 9.528 28.5692 9.784 29.9345 10.04C31.2998 10.296 32.9212 10.6373 34.7985 11.064L43.6305 9.91199L45.8065 10.04L48.2385 10.424L51.6945 10.552C51.6945 10.9787 51.7372 11.2347 51.8225 11.32L52.4625 11.576C56.2172 12.0027 59.4598 12.856 62.1905 14.136L68.2065 16.184C69.4012 16.696 70.4678 17.464 71.4065 18.488C73.1985 20.28 75.3318 23.2667 77.8065 27.448L81.3905 33.464C81.6465 33.8907 81.7745 34.4453 81.7745 35.128L81.3905 36.664L80.2385 38.712L79.3425 40.76L77.1665 44.856L74.3505 49.848L71.0225 54.968C69.8278 57.1867 68.0785 58.7227 65.7745 59.576C64.7505 59.7467 63.8118 60.0453 62.9585 60.472L59.8865 62.264L54.2545 65.72L49.0065 67.64C46.7878 68.152 45.2092 68.664 44.2705 69.176L43.2465 69.304C42.7345 69.304 42.3505 69.432 42.0945 69.688C41.9238 69.944 41.6252 70.5413 41.1985 71.48C40.7718 72.3333 40.5585 73.4 40.5585 74.68C40.5585 76.216 40.6438 77.24 40.8145 77.752L41.9665 81.72V82.616C41.8812 83.0427 41.7958 83.2987 41.7105 83.384L39.5345 83.64C37.7425 83.64 35.9505 83.1707 34.1585 82.232L31.8545 81.848L27.6305 82.488L24.8145 82.744L23.2785 82.616C22.2545 82.4453 20.9745 82.7013 19.4385 83.384L15.9825 84.536L13.9345 84.792C11.9718 84.792 10.5212 84.1947 9.5825 83C9.41183 82.744 9.36917 82.1893 9.4545 81.336L10.2225 78.904L10.9905 71.864L11.2465 64.056C11.2465 63.032 11.2038 61.368 11.1185 59.064C11.0332 56.76 10.9905 54.968 10.9905 53.688L10.3505 36.408L10.0945 34.616L9.5825 32.568L9.3265 30.136V27.576V23.352V21.944C9.3265 21.3467 9.24117 20.6213 9.0705 19.768C9.0705 18.744 8.89983 17.848 8.5585 17.08L8.1745 15.16L8.5585 12.984L9.5825 10.552L11.2465 10.296L13.1665 10.424L17.2625 10.04L23.9185 9.144L25.5825 9.272ZM33.2625 4.28C32.8358 4.28 32.4945 3.98133 32.2385 3.384C32.2385 2.53066 32.1532 1.848 31.9825 1.336H34.7985L35.0545 2.104C35.3105 3.55466 34.7132 4.28 33.2625 4.28ZM52.7185 24.248C52.0358 24.3333 50.7985 24.2053 49.0065 23.864C47.4705 23.352 46.3612 23.096 45.6785 23.096C44.6545 23.096 43.8012 23.608 43.1185 24.632C42.6918 25.7413 42.4785 27.1493 42.4785 28.856L42.7345 32.44L42.9905 35.896L42.8625 46.264L42.7345 56.632C42.7345 57.2293 43.0758 57.7413 43.7585 58.168C44.4412 58.5947 45.0812 58.68 45.6785 58.424L51.0545 54.84L54.8945 54.328H56.6865C57.4545 54.328 58.0092 54.2427 58.3505 54.072L60.0145 53.944H61.4225C62.4465 53.944 63.2145 53.56 63.7265 52.792L63.2145 52.024C63.2145 51.3413 63.5985 50.5307 64.3665 49.592C65.5612 48.568 66.2865 47.7573 66.5425 47.16L67.1825 45.368L69.4865 42.552L69.9985 40.632L70.1265 38.712C70.1265 37.688 69.8705 36.664 69.3585 35.64V34.232L69.6145 32.824C69.3585 32.056 68.8465 31.2027 68.0785 30.264L65.7745 27.96L63.3425 26.168L61.2945 25.528C60.4412 25.3573 59.2465 24.9307 57.7105 24.248C56.1745 23.48 54.9372 23.224 53.9985 23.48C53.7425 23.736 53.4865 23.9493 53.2305 24.12C52.9745 24.2053 52.8038 24.248 52.7185 24.248ZM73.9665 10.296C74.2225 10.296 74.4358 10.3387 74.6065 10.424C74.7772 10.424 74.9052 10.4667 74.9905 10.552C74.9905 11.1493 74.9478 11.5333 74.8625 11.704C74.7772 11.8747 74.5638 11.9173 74.2225 11.832C73.8812 11.6613 73.6252 11.4907 73.4545 11.32C73.4545 10.7227 73.6252 10.3813 73.9665 10.296ZM70.1265 67.256L67.9505 67.64C67.4385 67.64 66.9692 67.4693 66.5425 67.128C66.2865 66.36 66.4998 65.6347 67.1825 64.952C67.8652 63.928 68.8038 63.3307 69.9985 63.16C70.5105 63.3307 70.8518 63.5013 71.0225 63.672L71.5345 65.08C71.5345 66.1893 71.0652 66.9147 70.1265 67.256ZM81.6465 72.504H80.8785V71.224L81.6465 71.736V72.504ZM50.9265 75.832C50.6705 75.4907 50.6278 75.1067 50.7985 74.68C51.2252 74.3387 51.5238 74.168 51.6945 74.168C52.2065 74.168 52.6758 74.3813 53.1025 74.808C53.6145 75.1493 53.6572 75.6613 53.2305 76.344C53.0598 76.5147 52.6332 76.6 51.9505 76.6C51.5238 76.5147 51.1825 76.2587 50.9265 75.832ZM4.8465 72.504C4.3345 72.0773 4.0785 71.608 4.0785 71.096C4.0785 70.584 4.37717 69.8587 4.9745 68.92H6.3825V70.2C6.21183 70.8827 6.04117 71.3093 5.8705 71.48L4.8465 72.504ZM1.7745 53.56C1.09183 52.8773 0.7505 51.896 0.7505 50.616C0.7505 49.848 1.0065 49.2507 1.5185 48.824C2.2865 48.568 2.88383 48.7813 3.3105 49.464C3.48117 49.72 3.5665 50.1893 3.5665 50.872C3.5665 51.384 3.4385 51.8107 3.1825 52.152C3.01183 52.4933 2.7985 52.7493 2.5425 52.92L1.7745 53.56ZM100.569 14.648L103.001 14.392L105.689 14.264L108.121 14.392H110.809C112.771 14.392 114.478 14.2213 115.929 13.88L118.233 13.368L120.537 12.984C121.305 12.984 121.817 13.1973 122.073 13.624C123.011 15.2453 123.481 16.9947 123.481 18.872C123.481 19.7253 123.31 20.4933 122.969 21.176L122.329 23.736L122.073 26.808L122.329 30.136L122.713 33.208L122.969 35.512L123.097 37.688V40.12C123.097 40.8027 123.054 41.528 122.969 42.296C122.883 42.9787 122.841 43.4907 122.841 43.832L121.944 54.2C121.944 55.9067 122.03 57.3147 122.201 58.424C122.371 59.5333 122.969 60.8133 123.993 62.264C125.102 63.7147 126.51 65.1227 128.217 66.488C128.729 67 129.625 67.256 130.905 67.256C132.099 67.256 132.953 67.2133 133.465 67.128C134.062 66.9573 134.873 66.6587 135.897 66.232C137.603 65.464 138.969 64.5253 139.993 63.416C140.163 63.2453 140.505 61.9227 141.017 59.448L141.785 54.968C141.785 51.896 141.401 46.52 140.633 38.84L139.993 28.728L139.481 21.944L139.097 11.576C139.097 11.1493 139.865 10.7227 141.401 10.296L144.345 9.528L145.753 8.12C146.094 7.864 146.563 7.90666 147.161 8.24799L147.929 9.39999C148.185 9.99733 148.611 10.424 149.209 10.68L151.001 11.448C151.598 11.704 152.025 12.5573 152.281 14.008L152.793 20.28L153.049 25.784V32.056C153.049 33.4213 153.049 34.744 153.049 36.024C153.049 37.2187 153.134 38.584 153.305 40.12C153.561 41.5707 154.073 43.448 154.84 45.752C155.011 46.4347 154.841 47.416 154.329 48.696L153.817 51.512L153.049 51.896L152.537 52.664C152.451 53.176 152.238 55.0533 151.896 58.296C151.555 61.4533 151.299 63.928 151.129 65.72L150.233 76.472L150.104 77.368L148.952 78.648C147.758 78.904 144.643 80.056 139.609 82.104C135.939 83.5547 132.91 84.28 130.521 84.28L127.961 84.536L125.401 84.792L121.944 84.152H119.641L117.593 84.28H112.089C110.809 84.28 108.889 84.024 106.329 83.512L100.697 82.488C99.9285 82.4027 99.3312 82.3173 98.9045 82.232C98.4778 82.0613 97.7098 81.7627 96.6005 81.336C95.5765 80.9093 94.6805 80.184 93.9125 79.16C93.2298 78.0507 92.7605 76.5147 92.5045 74.552C92.5045 72.8453 92.3765 71.6933 92.1205 71.096C91.8645 70.4133 91.6512 69.9013 91.4805 69.56L90.8405 68.024L91.2245 64.312L91.6085 60.728V54.968L91.2245 39.992L90.0725 14.392L90.8405 13.624L92.5045 13.496L94.2965 13.24C95.1498 13.24 96.0458 13.5387 96.9845 14.136C97.9232 14.648 99.1178 14.8187 100.569 14.648ZM111.577 9.656L113.625 11.192L113.113 11.96H111.577C111.065 11.704 110.809 11.064 110.809 10.04C111.15 9.784 111.406 9.656 111.577 9.656ZM133.849 45.752C133.849 46.1787 133.55 46.648 132.953 47.16C132.697 47.3307 132.441 47.416 132.185 47.416C132.014 47.416 131.886 47.416 131.801 47.416C131.374 47.16 131.289 46.7333 131.545 46.136C131.801 45.4533 132.313 45.1973 133.081 45.368L133.337 45.624L133.849 45.752ZM130.521 57.656H129.881L129.753 57.272L130.265 55.352L130.777 53.432H131.545V55.352C131.545 56.4613 131.203 57.2293 130.521 57.656ZM87.2565 62.776C87.0005 62.264 86.8725 61.88 86.8725 61.624C86.8725 61.112 87.0858 60.6853 87.5125 60.344C87.9392 60.1733 88.2805 60.2587 88.5365 60.6C88.8778 60.856 89.0485 61.2827 89.0485 61.88L88.1525 62.904C87.8112 63.16 87.5125 63.1173 87.2565 62.776ZM134.361 86.584C134.617 86.84 134.745 87.0533 134.745 87.224L134.617 88.376L133.849 88.76L132.825 86.84C133.422 86.6693 133.934 86.584 134.361 86.584ZM155.353 78.008L155.865 79.16C155.865 79.928 155.481 80.568 154.713 81.08C153.945 81.592 153.049 81.848 152.025 81.848L153.689 78.52C154.201 77.8373 154.755 77.6667 155.353 78.008ZM173.798 4.408V5.17599L171.494 5.688L168.934 5.432C168.251 5.176 167.91 4.83466 167.91 4.408L168.422 3.64L170.086 3.256C170.683 3.256 171.152 3.34133 171.494 3.51199L173.798 4.408ZM161.51 8.24799L160.998 7.736L161.894 6.96799C162.064 6.88266 162.192 6.84 162.278 6.84C162.363 6.84 162.534 6.79733 162.79 6.712C162.96 6.88266 163.046 7.224 163.046 7.736C162.704 8.07733 162.448 8.24799 162.278 8.24799H161.51ZM168.678 9.528C170.299 9.69866 172.646 9.912 175.718 10.168C178.79 10.424 181.307 10.552 183.27 10.552L199.142 10.808H213.99C217.488 10.808 221.072 11.1067 224.742 11.704C228.496 12.216 231.91 13.0267 234.982 14.136C235.408 14.136 236.006 14.648 236.774 15.672C237.286 16.6107 237.542 17.464 237.542 18.232C237.371 19.6827 237.03 20.8773 236.518 21.816C236.176 22.84 235.536 23.608 234.598 24.12C232.72 25.144 230.075 25.656 226.662 25.656C223.078 25.656 220.731 25.8693 219.622 26.296L217.19 27.192C216.763 27.448 216.507 28.0027 216.422 28.856C216.422 29.624 216.208 30.136 215.782 30.392C214.758 31.16 214.118 32.1413 213.862 33.336L213.99 36.152L214.246 38.2V39.352L213.99 39.992C213.904 40.504 214.032 41.3147 214.374 42.424L215.654 45.624L215.91 47.416L214.63 56.632V62.904L214.758 66.872L215.142 70.584L216.55 75.192C217.318 77.1547 217.702 78.6053 217.702 79.544C217.702 80.568 217.531 81.336 217.19 81.848C216.934 82.36 216.08 82.744 214.63 83C213.435 83.0853 212.454 83.512 211.686 84.28H210.662C210.235 83.8533 209.424 83.4267 208.23 83L203.75 82.488L201.19 82.36H199.142L191.59 82.744L181.478 84.152C179.771 84.152 178.918 83.6827 178.918 82.744C178.918 82.232 179.174 81.464 179.686 80.44C180.112 79.928 180.112 79.16 179.686 78.136V76.216L180.07 74.296L179.814 66.232L179.686 61.112L179.814 55.48C179.984 54.3707 180.07 53.6453 180.07 53.304C180.155 52.8773 180.411 51.9387 180.838 50.488L180.966 49.336L180.454 44.344C180.624 43.2347 180.838 41.6133 181.094 39.48C181.35 37.3467 181.478 35.5547 181.478 34.104L181.734 22.84C181.734 22.072 181.222 21.688 180.198 21.688L176.102 22.072L175.59 21.432L174.95 21.048L172.646 20.92L169.446 21.048L166.374 21.176C164.752 21.176 163.387 20.9627 162.278 20.536L161.894 17.72V15.288V13.24L162.406 11.832C162.662 11.2347 162.875 10.8507 163.046 10.68L163.302 10.424L165.094 10.296L166.63 10.424C167.483 10.424 168.166 10.1253 168.678 9.528ZM174.566 37.176C174.651 37.2613 174.907 37.3467 175.333 37.432C175.333 38.968 175.333 40.504 175.333 42.04C175.078 43.32 174.864 44.6 174.694 45.88C174.608 47.0747 174.48 48.056 174.31 48.824C174.139 49.5067 173.712 51.0853 173.03 53.56V41.272L173.798 40.504L174.31 39.096C174.48 38.6693 174.566 38.0293 174.566 37.176ZM222.31 61.112L220.774 63.544C220.091 64.4827 219.28 64.9947 218.342 65.08L218.086 64.312L220.134 58.424C220.304 57.912 220.688 57.656 221.286 57.656C221.798 57.656 222.352 57.9973 222.95 58.68C223.206 59.0213 223.248 59.448 223.077 59.96L222.31 61.112ZM219.11 86.328L219.366 87.096C218 87.7787 216.592 88.12 215.142 88.12L212.966 87.992L210.662 87.864V87.096L213.734 86.584H215.526L219.11 86.328ZM223.718 43.576L223.846 39.736C224.016 38.968 224.486 38.1147 225.254 37.176C225.51 37.688 225.638 38.2853 225.638 38.968C225.638 40.0773 225.254 41.3573 224.486 42.808L224.102 43.32L223.718 43.576ZM223.974 5.432H221.926L220.134 5.17599L222.694 2.744C223.547 2.06133 224.23 1.63466 224.742 1.464C225.254 1.464 225.68 1.89066 226.021 2.744C225.766 3.42666 225.467 4.024 225.126 4.536C224.87 4.96266 224.486 5.26133 223.974 5.432ZM277.951 15.8C278.207 16.312 278.548 17.5067 278.975 19.384C279.231 21.432 279.444 22.968 279.615 23.992C279.785 25.016 280.041 25.784 280.383 26.296C280.639 27.064 281.407 28.3867 282.687 30.264C284.052 32.056 284.905 33.5067 285.247 34.616C285.588 35.64 286.057 36.8347 286.655 38.2C287.252 39.5653 287.977 41.144 288.831 42.936L292.671 51L293.439 53.688L293.951 55.864C294.121 56.5467 294.591 57.3147 295.359 58.168L297.407 60.728L298.559 62.776L299.967 64.568L302.015 65.72V67.256L289.215 77.368L286.911 79.544L283.071 82.616C282.388 83.128 281.663 83.384 280.895 83.384C279.615 83.384 278.548 82.8293 277.694 81.72L277.567 79.416L276.799 78.648L276.415 78.392L270.911 78.008L267.583 77.88C264.425 77.88 261.609 78.1787 259.135 78.776C258.367 79.032 257.556 79.8853 256.703 81.336C255.935 82.7013 255.252 83.64 254.655 84.152L251.455 83.768L244.286 83.384L242.623 82.744C243.391 80.184 245.097 77.24 247.743 73.912L251.455 68.792L252.351 67L253.119 65.336C253.46 64.9093 253.844 64.2693 254.271 63.416C254.783 62.4773 255.252 61.5387 255.679 60.6L257.727 56.504C259.177 54.6267 259.903 52.792 259.903 51C259.903 48.696 260.372 47.0747 261.311 46.136C262.249 45.624 263.017 44.856 263.615 43.832C264.809 41.6987 266.985 36.152 270.143 27.192C271.423 23.608 272.831 20.28 274.367 17.208C274.623 16.5253 275.22 16.0133 276.159 15.672C277.012 15.416 277.609 15.4587 277.951 15.8ZM282.175 5.17599V2.87199C282.857 2.87199 283.369 2.78666 283.711 2.616C284.82 3.63999 285.332 4.49333 285.247 5.17599H284.479C284.308 5.34666 283.924 5.432 283.327 5.432L282.175 5.17599ZM296.767 37.176H297.791C298.473 37.7733 298.815 38.4987 298.815 39.352C298.815 40.0347 298.644 40.5893 298.303 41.016L297.535 41.272C297.023 41.272 296.511 41.016 295.999 40.504L295.743 39.224C295.999 38.5413 296.212 38.1147 296.383 37.944C296.383 37.7733 296.425 37.6453 296.511 37.56C296.596 37.3893 296.681 37.2613 296.767 37.176ZM298.303 83.768C297.791 83.512 297.663 82.9147 297.919 81.976C298.175 81.464 298.601 81.208 299.199 81.208C299.796 81.208 300.137 81.6347 300.223 82.488C299.881 83.768 299.241 84.1947 298.303 83.768ZM255.295 91.96L254.911 91.192V90.168L255.679 89.656L255.935 90.68C256.105 91.0213 256.148 91.3627 256.062 91.704C255.977 91.7893 255.721 91.8747 255.295 91.96ZM251.071 58.68C250.815 59.0213 250.431 59.1493 249.919 59.064C249.492 58.8933 249.193 58.68 249.023 58.424C248.596 57.912 248.297 57.3573 248.127 56.76C248.127 56.248 248.468 55.7787 249.151 55.352C249.663 55.096 250.175 55.1387 250.687 55.48C251.199 55.736 251.583 56.2907 251.839 57.144L251.071 58.68ZM269.759 54.968C269.076 55.3947 268.436 56.12 267.839 57.144C267.241 58.168 266.943 59.1067 266.943 59.96L267.199 61.112C268.137 62.5627 269.588 63.288 271.551 63.288C272.831 63.288 273.769 62.8187 274.367 61.88C274.623 61.4533 274.495 60.8133 273.983 59.96L272.958 57.912L271.807 55.608C271.209 54.9253 270.527 54.712 269.759 54.968ZM375.597 1.592L379.821 4.28L383.789 6.584C384.983 7.096 385.581 8.20533 385.581 9.91199L385.453 11.704L384.557 14.904L383.917 15.16L383.661 15.672C383.661 18.232 382.594 20.28 380.461 21.816V22.584C379.181 22.7547 378.242 22.6693 377.645 22.328L376.109 21.304L372.525 20.664C371.159 20.664 369.922 20.4507 368.812 20.024L365.357 19.384L360.877 19.256H357.421L352.045 18.872L348.461 19.256H346.157L344.365 19.384L342.573 19.768C339.501 20.792 336.941 22.5413 334.893 25.016C334.637 25.272 334.082 25.912 333.229 26.936C332.461 27.8747 331.65 29.0267 330.797 30.392C330.37 31.3307 329.986 32.2267 329.645 33.08C329.303 33.9333 328.962 34.9573 328.621 36.152L327.853 40.632L327.597 44.088C327.597 45.7947 327.895 47.416 328.493 48.952L329.901 54.072C330.157 55.1813 330.541 56.248 331.053 57.272C331.65 58.296 332.589 59.448 333.869 60.728L339.885 66.104L340.909 67L342.317 67.64C346.669 68.92 350.935 69.56 355.117 69.56C357.165 69.56 358.786 69.4747 359.981 69.304C361.261 69.048 362.455 68.792 363.565 68.536C364.674 68.28 365.783 67.9813 366.893 67.64L368.557 66.872C369.069 66.616 369.453 66.2747 369.709 65.848C370.05 65.336 370.562 64.8667 371.245 64.44L372.781 63.288L374.061 63.544C374.573 64.9947 375.085 67.256 375.597 70.328L376.877 76.6C376.109 76.856 375.725 77.4533 375.725 78.392L375.981 79.928L376.237 81.336C376.237 81.848 375.981 82.232 375.469 82.488C374.957 82.744 374.487 82.9147 374.061 83C373.719 83.0853 373.122 83.128 372.269 83.128L368.045 83C366.679 83 365.527 83.2133 364.589 83.64L360.877 85.176C359.767 85.6027 358.487 85.9013 357.037 86.072L354.989 85.816L351.149 85.048C349.357 84.792 348.034 84.4507 347.181 84.024C345.901 83.6827 344.791 83.384 343.853 83.128C342.999 82.9573 341.549 82.5307 339.501 81.848L336.941 81.208C335.831 81.1227 334.466 80.568 332.845 79.544L330.541 78.008L328.749 76.472C327.725 75.8747 326.658 74.936 325.549 73.656L322.605 70.072L320.045 66.616L317.997 62.776C316.973 60.728 316.205 58.68 315.693 56.632L314.413 51.256L314.157 44.856C314.157 42.8933 314.242 41.4427 314.413 40.504L315.309 33.336L315.693 29.112L316.717 24.376C317.143 22.4987 318.125 20.4933 319.661 18.36L324.141 12.728C324.567 12.1307 325.975 10.8933 328.365 9.016L330.925 6.712L332.333 4.92L334.637 4.28L336.941 3.768L340.909 3.51199L345.773 3.384H346.925C348.802 3.384 351.063 3.08533 353.709 2.488L359.341 1.20799L362.029 0.951996L367.661 0.567993L369.452 0.695999C370.306 0.695999 370.903 0.781331 371.245 0.951996H373.293C374.402 0.951996 375.17 1.16533 375.597 1.592ZM362.029 23.352C362.029 24.2907 361.943 24.888 361.773 25.144L359.085 29.368L356.781 33.336H355.629L355.245 31.16C355.245 30.136 355.458 29.2827 355.885 28.6C356.397 27.832 356.823 27.192 357.165 26.68C357.591 26.0827 358.103 25.4 358.701 24.632C359.383 23.864 360.237 23.352 361.261 23.096L362.029 23.352ZM372.525 33.336H371.245C370.733 32.9093 370.477 31.8853 370.477 30.264L372.013 29.496C372.866 29.752 373.293 30.392 373.293 31.416C373.293 31.928 373.037 32.568 372.525 33.336ZM312.877 12.856C312.877 11.832 312.962 11.2347 313.133 11.064C313.389 11.064 313.602 11.1067 313.773 11.192C314.029 11.192 314.242 11.2347 314.413 11.32C314.413 12.344 314.242 13.0267 313.901 13.368C313.303 13.368 312.962 13.1973 312.877 12.856ZM334.637 31.032V29.752L335.405 29.496V30.52L335.021 30.904L334.637 31.032ZM309.549 46.392C309.122 46.648 308.61 46.6907 308.013 46.52C307.586 46.264 307.373 45.3253 307.373 43.704L307.501 41.016C307.671 40.248 308.055 39.864 308.653 39.864C309.165 39.864 309.549 39.992 309.805 40.248C310.146 40.504 310.402 40.9733 310.573 41.656C310.402 42.2533 310.231 42.6373 310.061 42.808L309.549 44.216V46.392ZM378.925 64.824C378.413 65.08 377.901 65.0373 377.389 64.696L376.749 63.288L376.365 61.112C376.365 60.4293 376.535 60.0453 376.877 59.96C377.645 59.704 378.157 60.0027 378.413 60.856L378.925 63.544V64.824ZM378.157 69.688L377.645 68.408C377.645 67.64 377.858 67.128 378.285 66.872C378.797 66.616 379.181 66.6587 379.437 67C379.693 67.256 379.821 67.7253 379.821 68.408C379.821 69.3467 379.522 69.8587 378.925 69.944L378.157 69.688ZM407.9 25.784C408.326 26.1253 409.094 26.424 410.204 26.68L413.02 26.936H416.22H418.14C418.908 26.936 419.548 26.68 420.06 26.168C420.657 25.5707 421.425 25.272 422.364 25.272L423.644 25.656L425.692 26.296C426.716 26.552 427.356 26.936 427.612 27.448C427.868 27.8747 427.996 28.5147 427.996 29.368L427.74 31.544L427.484 33.848L427.868 47.672V72.248C427.953 72.5893 428.038 72.8453 428.124 73.016C428.209 73.1867 428.337 73.3147 428.508 73.4L434.268 73.528L440.028 73.656L444.252 73.528C445.788 73.528 447.196 73.3573 448.476 73.016L453.084 72.632C454.278 72.632 455.388 72.9307 456.412 73.528C457.521 74.04 457.948 74.7227 457.692 75.576C457.521 76.088 457.308 76.8133 457.052 77.752C456.881 78.6053 456.753 79.3307 456.668 79.928C456.668 81.464 457.009 82.744 457.692 83.768C457.18 84.28 456.412 84.536 455.388 84.536L452.827 84.408C452.145 84.408 451.505 84.5787 450.908 84.92C450.481 85.2613 449.67 85.176 448.476 84.664L446.172 84.024C445.148 84.024 443.057 83.9387 439.9 83.768C436.742 83.5973 434.652 83.512 433.628 83.512C428.934 83.512 424.881 83.384 421.468 83.128C418.054 82.872 415.11 82.616 412.636 82.36L404.188 82.744L403.164 83.256C402.822 83.3413 402.31 83.384 401.628 83.384L400.22 83.128C399.452 82.872 398.854 82.36 398.428 81.592L397.788 78.776L397.532 75.32C397.532 73.1867 397.83 70.2427 398.428 66.488C399.11 62.7333 399.452 60.1733 399.452 58.808L399.324 56.504L398.556 52.152L398.3 47.032L398.172 40.76V33.848L398.3 26.936C398.3 26.2533 398.982 25.6133 400.348 25.016L402.396 24.632L403.804 24.504C405.169 24.504 406.534 24.9307 407.9 25.784ZM428.764 20.024H427.74V19.256L428.508 19.64L428.764 20.024ZM424.668 16.568C424.412 16.312 424.284 15.7573 424.284 14.904L424.668 13.496H425.436C425.692 14.4347 425.734 15.3307 425.564 16.184C425.137 16.44 424.838 16.568 424.668 16.568ZM395.484 33.848V32.696L396.38 32.568C396.892 32.7387 397.148 32.9093 397.148 33.08C397.062 33.1653 396.806 33.3787 396.38 33.72C396.294 33.8053 395.996 33.848 395.484 33.848ZM393.18 41.912L393.564 44.6L394.076 46.904C394.076 47.7573 393.99 48.3547 393.82 48.696C393.649 49.0373 393.521 49.336 393.436 49.592C393.35 49.7627 393.18 49.976 392.924 50.232C392.668 50.3173 392.454 50.36 392.284 50.36L391.644 49.592L391.772 47.416C391.26 46.7333 390.918 45.752 390.748 44.472L390.876 42.296L391.9 41.528C392.412 41.528 392.71 41.5707 392.796 41.656C392.966 41.7413 393.094 41.8267 393.18 41.912ZM403.932 86.456V87.608C403.334 87.9493 402.865 88.12 402.524 88.12C402.182 88.2053 401.884 88.2907 401.628 88.376L401.116 87.608L403.164 86.456H403.932ZM435.164 98.872L435.548 100.024C435.548 101.048 434.993 101.688 433.884 101.944L431.58 102.712C431.068 102.968 430.47 103.096 429.788 103.096C428.934 103.096 428.294 102.712 427.868 101.944C427.612 101.603 427.697 101.176 428.124 100.664C428.636 100.152 429.276 99.768 430.044 99.512L433.756 98.232C434.268 98.232 434.737 98.4453 435.164 98.872ZM448.988 68.408C448.732 67.64 448.902 67.0427 449.5 66.616C450.097 66.104 450.865 65.7627 451.804 65.592C452.06 65.336 452.273 65.1653 452.444 65.08C452.7 64.9947 452.913 64.9093 453.084 64.824L453.596 65.336C453.51 65.5067 453.425 65.72 453.34 65.976C453.254 66.1467 452.998 66.4453 452.572 66.872L451.036 68.408L449.756 69.048C449.329 68.792 449.073 68.5787 448.988 68.408ZM469.014 7.352C468.246 7.69333 467.606 7.39466 467.094 6.45599C466.582 5.51733 466.454 4.57866 466.71 3.64C467.478 2.44533 468.331 1.848 469.27 1.848C469.782 1.848 470.208 2.14666 470.55 2.744C470.806 3.59733 470.763 4.49333 470.422 5.432C470.166 6.37066 469.696 7.01066 469.014 7.352ZM485.398 17.336L486.166 17.72C485.824 18.744 485.312 19.512 484.63 20.024C484.032 20.536 483.307 20.664 482.454 20.408C481.942 20.152 481.942 19.768 482.454 19.256L484.246 17.976L485.398 17.336ZM496.15 51.512L496.918 52.28L496.79 55.48L496.662 58.808L496.79 60.728L496.918 62.264C496.064 61.1547 495.638 59.7467 495.638 58.04V56.504L495.894 54.968L496.022 53.304L496.15 51.512ZM489.238 86.328L487.574 86.072L485.654 86.2L483.862 86.456C484.715 85.3467 485.952 84.792 487.574 84.792L490.262 85.176L493.846 86.072C493.76 86.328 493.248 86.5413 492.31 86.712L491.03 86.84L489.238 86.328ZM488.726 109.112C487.787 109.112 486.976 107.96 486.294 105.656L486.678 104.12C487.104 103.608 487.574 103.352 488.086 103.352L489.11 103.864L489.622 105.272L489.366 106.68L488.726 109.112ZM464.15 105.272L463.638 103.352C463.638 102.584 463.723 102.029 463.894 101.688L464.79 100.152L466.07 99.896L467.734 100.28C467.307 100.621 466.752 101.432 466.07 102.712C465.387 103.992 464.747 104.845 464.15 105.272ZM463.382 58.424L463.126 57.656C463.638 57.144 464.15 57.016 464.661 57.272V58.04C464.406 58.296 464.192 58.424 464.022 58.424H463.382ZM464.661 43.064V42.296H465.43C465.43 42.7227 465.43 43.1067 465.43 43.448L464.661 43.064ZM470.55 26.936C470.464 26.3387 471.062 25.912 472.342 25.656L475.158 24.888C475.67 24.632 476.352 24.504 477.206 24.504C477.888 24.504 478.571 24.6747 479.253 25.016L481.046 25.912L491.542 27.576L493.846 27.32C493.846 29.2827 493.59 31.7573 493.078 34.744C491.883 41.4853 491.286 45.6667 491.286 47.288C491.286 51.384 491.542 55.736 492.054 60.344L492.182 62.008L492.054 64.44C492.054 65.464 491.968 66.2747 491.798 66.872C491.798 67.7253 491.798 68.5787 491.798 69.432C491.798 70.2 491.883 71.224 492.054 72.504L492.566 77.624C492.566 79.0747 492.48 80.2267 492.31 81.08C492.139 81.848 491.584 82.3173 490.646 82.488C489.878 82.488 489.152 82.6587 488.47 83L485.91 83.256L482.838 83L479.51 82.744C476.864 82.744 473.963 82.3173 470.806 81.464L471.446 77.624L471.702 73.784V69.56V66.104V63.032V60.344V58.04V56.12V54.2V52.664L471.574 47.928V43.064V41.528L471.19 32.44L470.55 26.936ZM520.558 6.712C520.302 7.48 519.704 7.736 518.766 7.48C518.168 7.22399 517.827 6.62666 517.742 5.688C517.742 4.49333 518.339 4.024 519.534 4.28C520.472 4.36533 520.814 5.176 520.558 6.712ZM550.51 8.504L552.558 8.376L555.886 8.632C557.507 8.80266 559.171 9.10133 560.878 9.528C562.67 9.784 564.504 10.5093 566.382 11.704C568.259 12.8133 570.008 14.3067 571.63 16.184C573.166 17.72 574.318 19.64 575.086 21.944C575.939 23.8213 576.366 25.5707 576.366 27.192C576.366 27.96 576.067 28.6853 575.47 29.368L572.27 32.824L571.118 35.384L563.566 42.808C559.726 42.3813 557.464 42.04 556.782 41.784C554.307 41.016 552.686 39.5653 551.918 37.432L551.534 35.512C551.534 34.744 551.619 34.1893 551.79 33.848L552.942 31.544C553.539 30.52 554.52 29.9653 555.886 29.88C557.166 29.88 558.403 30.3067 559.598 31.16C559.854 31.416 560.323 31.544 561.006 31.544C561.518 31.3733 561.859 31.2027 562.03 31.032L562.414 29.24C562.414 27.704 561.688 26.5093 560.238 25.656C559.214 25.144 558.019 24.888 556.654 24.888H555.118C554.606 24.888 554.008 24.8027 553.326 24.632L551.662 24.248L550.254 23.48L544.238 22.328C543.128 21.56 542.062 21.304 541.038 21.56C539.16 22.072 537.112 23.096 534.894 24.632L529.006 28.984C528.494 29.496 528.238 30.008 528.238 30.52C527.64 30.52 527 30.904 526.318 31.672L525.038 33.464L524.27 35.128L523.374 37.432L524.27 42.808L523.886 44.088C523.886 45.368 523.886 46.5627 523.886 47.672C523.886 48.696 523.928 49.8053 524.014 51C524.184 52.1947 524.782 53.4747 525.806 54.84C528.366 58.424 531.651 61.2827 535.662 63.416L539.502 64.952L541.55 65.592C542.659 65.7627 543.299 65.9333 543.47 66.104L546.03 67.64C546.371 67.8107 546.926 68.0667 547.694 68.408C548.547 68.664 549.272 68.8773 549.87 69.048L552.43 69.432L556.014 68.92L559.726 68.408L561.774 68.664C562.542 68.92 564.248 68.2373 566.894 66.616C568.088 65.848 569.112 65.592 569.965 65.848C571.246 66.1893 572.184 67.4267 572.782 69.56L574.318 75.576C574.488 76.088 574.915 76.344 575.598 76.344V77.752C575.342 78.0933 575.128 78.3067 574.958 78.392L570.222 80.312L567.406 81.208L561.006 83.256L559.47 83L557.038 81.848L554.478 81.208L553.07 81.592C552.387 81.7627 551.491 82.232 550.382 83C549.272 83.8533 548.419 84.3653 547.822 84.536C547.31 84.792 546.712 84.92 546.03 84.92C545.176 84.92 544.536 84.7067 544.11 84.28L543.598 85.048L545.774 86.84L547.566 87.864L547.95 88.504V89.528L546.414 89.656C543.342 89.656 541.294 88.12 540.27 85.048L541.55 84.664L542.062 84.152C542.062 83.64 541.72 83.0853 541.038 82.488L539.118 81.208L535.79 80.44C534.339 80.2693 533.443 80.0987 533.102 79.928L529.006 78.392L525.934 76.856L524.526 75.576C524.099 75.064 523.544 74.5947 522.862 74.168L517.23 70.456C515.864 69.5173 514.67 68.8347 513.646 68.408L510.062 67.64C509.123 67.0427 508.27 65.976 507.502 64.44L505.966 60.472C505.71 59.7893 505.496 58.7227 505.326 57.272L505.582 54.456L505.838 51.768L504.43 38.2C504.43 32.4827 505.795 27.32 508.526 22.712L510.958 19.384C511.896 18.36 513.134 17.2933 514.67 16.184C515.096 15.7573 515.864 15.3307 516.974 14.904L519.662 14.008C520.43 13.752 521.368 13.0693 522.478 11.96L525.678 8.75999C527.214 6.712 529.39 5.688 532.206 5.688L534.126 5.94399C535.064 6.456 536.088 6.712 537.198 6.712L548.462 8.632L550.51 8.504ZM574.318 37.176C574.318 34.2747 575.427 31.7573 577.646 29.624C577.902 29.368 578.286 29.24 578.798 29.24C579.31 29.24 579.694 29.4107 579.95 29.752L580.334 31.288C580.334 32.2267 579.992 33.208 579.31 34.232L577.262 36.536L575.086 37.688C574.915 37.688 574.744 37.6453 574.574 37.56C574.488 37.3893 574.403 37.2613 574.318 37.176ZM532.59 37.176C532.248 36.664 532.078 36.2373 532.078 35.896C532.504 34.872 533.528 34.36 535.15 34.36L535.662 35.896C535.235 36.7493 534.211 37.176 532.59 37.176ZM528.238 49.72C527.47 48.952 527.043 48.2267 526.958 47.544L527.214 46.648H527.982C527.982 47.416 528.067 47.928 528.238 48.184V49.72ZM522.094 76.6H522.862L523.374 78.648L522.606 78.904C522.094 78.904 521.838 78.5627 521.838 77.88L522.094 76.6ZM502.894 58.168L504.046 60.728C504.302 61.1547 504.174 61.496 503.661 61.752C503.235 61.496 502.936 61.2827 502.766 61.112C502.254 60.344 501.998 59.3627 501.998 58.168H502.894Z" fill="#F21B1B"/>
</svg>
