<svg width="408" height="100" viewBox="0 0 408 100" fill="none" xmlns="http://www.w3.org/2000/svg">
<path d="M39.2935 8.744L44.6695 10.152L47.3575 10.792L49.1495 11.048H50.6855L52.8615 10.792L54.0135 10.92L57.0855 12.328C57.7682 12.584 58.4508 13.224 59.1335 14.248L59.6455 16.808L59.2615 19.24L58.3655 23.976C57.9388 26.3653 57.2562 28.1573 56.3175 29.352L46.8455 24.488C44.8828 23.976 43.0482 23.72 41.3415 23.72C39.6348 23.72 38.2268 23.8907 37.1175 24.232C36.0935 24.5733 35.5815 25.0853 35.5815 25.768C35.5815 25.9387 35.6668 26.3653 35.8375 27.048L41.0855 35.624C42.9628 38.5253 45.0535 40.9573 47.3575 42.92L63.8695 55.592L64.2535 56.232L64.7655 57H65.5335L66.4295 60.456C66.7708 61.5653 67.4535 62.504 68.4775 63.272C68.3922 64.1253 68.2642 64.8507 68.0935 65.448L62.7175 72.104L60.7975 75.176L56.9575 80.936C56.3602 82.0453 55.6348 83.112 54.7815 84.136L52.3495 87.464L51.0695 89.128C50.7282 89.5547 50.1735 89.896 49.4055 90.152H46.3335L42.1095 90.28L37.6295 90.408C35.3255 90.408 33.3202 90.2373 31.6135 89.896C29.9922 89.64 28.3282 89.0853 26.6215 88.232C26.1095 87.976 25.0855 87.7627 23.5495 87.592H21.2455L19.9655 87.464C18.0882 86.952 15.6562 85.928 12.6695 84.392L8.1895 82.088L6.7815 81.704L5.3735 81.32L3.4535 80.424C2.85617 79.912 2.5575 79.272 2.5575 78.504L3.8375 72.104C4.3495 70.2267 5.45883 69.288 7.1655 69.288C7.6775 69.544 8.01883 69.7573 8.1895 69.928L9.3415 70.952C9.5975 71.208 10.1948 71.336 11.1335 71.336C11.9868 71.336 12.6268 71.464 13.0535 71.72L16.1255 74.408C17.0642 75.3467 18.0882 75.688 19.1975 75.432C20.3922 74.92 21.6295 74.536 22.9095 74.28L26.7495 74.024H29.4375L30.4615 73.256L32.5095 72.744L34.5575 72.872L35.8375 73C36.9468 73 37.3735 72.4453 37.1175 71.336L36.3495 69.16L35.0695 67.496L33.5335 65.32C33.0215 64.552 32.4242 64.168 31.7415 64.168C31.9975 63.4 31.6562 62.9307 30.7175 62.76C29.8642 62.5893 29.1388 61.9493 28.5415 60.84L25.5975 55.08C24.6588 53.1173 23.3362 51.496 21.6295 50.216C18.5575 47.7413 16.2108 45.352 14.5895 43.048C12.5415 40.232 11.5175 37.288 11.5175 34.216C11.5175 33.1067 12.2002 31.8267 13.5655 30.376L15.4855 27.944L22.1415 16.68C24.7015 12.6693 27.5602 9.46933 30.7175 7.07999C31.6562 7.592 33.1922 7.976 35.3255 8.23199C37.1175 8.23199 38.4402 8.40266 39.2935 8.744ZM46.5895 1.064C46.8455 1.23466 47.0588 1.61866 47.2295 2.216C47.2295 3.24 46.6748 3.88 45.5655 4.13599C45.3095 3.88 45.1815 3.66666 45.1815 3.49599L45.4375 2.47199C45.4375 1.70399 45.5655 1.19199 45.8215 0.935997C46.1628 0.850665 46.4188 0.893331 46.5895 1.064ZM65.5335 34.984C65.7895 35.8373 65.7042 36.6053 65.2775 37.288C64.8508 37.9707 64.2535 38.056 63.4855 37.544C63.3148 37.3733 63.2295 36.8613 63.2295 36.008C63.3148 35.24 63.7415 34.8133 64.5095 34.728C64.6802 34.8987 65.0215 34.984 65.5335 34.984ZM18.6855 69.032L17.2775 69.288C16.9362 69.1173 16.7228 68.9467 16.6375 68.776L15.6135 66.6C15.3575 65.832 15.4428 65.2347 15.8695 64.808L17.9175 64.296C18.9415 64.296 19.6242 64.6373 19.9655 65.32L20.4775 66.856C20.4775 67.7947 19.8802 68.52 18.6855 69.032ZM-0.00249982 43.944C0.168167 43.176 0.2535 42.664 0.2535 42.408C0.338834 42.152 0.594834 41.384 1.0215 40.104C1.5335 38.824 1.7895 37.8 1.7895 37.032C1.7895 35.9227 1.44817 34.8987 0.7655 33.96L1.0215 33.192H1.7895L2.0455 34.6L2.5575 36.008L2.8135 37.8C2.8135 38.6533 2.47217 39.4213 1.7895 40.104C1.5335 40.36 1.2775 41 1.0215 42.024C0.7655 42.9627 0.424167 43.6027 -0.00249982 43.944ZM9.4695 46.248L7.9335 46.504L8.1895 46.12L8.7015 46.248H9.4695ZM7.1655 13.224L8.4455 11.816C8.7015 11.56 9.00017 11.56 9.3415 11.816L10.1095 12.712C10.3655 12.8827 10.5362 13.096 10.6215 13.352C10.7068 13.5227 10.7922 13.6507 10.8775 13.736C10.7068 14.1627 10.5362 14.4187 10.3655 14.504L8.8295 14.76C8.40283 14.76 8.0615 14.632 7.8055 14.376C7.5495 14.0347 7.37883 13.8213 7.2935 13.736C7.2935 13.5653 7.25083 13.3947 7.1655 13.224ZM89.9975 22.568L98.3175 24.488L105.87 25L109.069 25.256H112.526H114.702C115.555 25.256 116.579 25.1707 117.774 25L121.102 24.744L124.558 25L127.374 25.256H130.574L133.902 25.128L136.846 25.256L138.382 26.536L139.79 26.152L140.686 25.64L144.27 25.768L147.982 25.896H149.518C150.03 25.896 150.627 25.8107 151.31 25.64L153.23 25.256H154.382C154.638 25.6827 154.851 26.408 155.022 27.432L154.638 31.4C154.638 32.0827 154.851 32.7227 155.278 33.32C155.704 33.9173 156.003 34.6853 156.174 35.624L155.79 36.392C154.68 36.648 153.614 36.8613 152.59 37.032C151.566 37.2027 150.414 37.288 149.134 37.288H146.83C146.574 37.3733 146.232 37.4587 145.806 37.544C145.379 37.544 144.91 37.672 144.398 37.928L141.454 38.568C139.491 38.1413 137.784 37.928 136.334 37.928C135.054 37.928 133.774 38.184 132.494 38.696C131.811 38.952 131.299 39.5493 130.958 40.488L130.574 43.176L128.654 59.56L128.526 69.032C128.526 70.056 128.483 71.6347 128.398 73.768C128.312 75.816 128.27 77.3947 128.27 78.504L127.758 81.704L127.374 85.416L127.502 87.336L127.886 89.512C127.886 90.1093 127.544 90.4507 126.862 90.536L123.406 90.792H121.358L119.95 90.28L117.134 89.768C115.854 89.768 114.872 89.8533 114.19 90.024L111.118 90.28C109.496 90.28 108.259 90.2373 107.406 90.152C106.552 90.0667 105.144 89.8107 103.182 89.384L89.9975 86.44C89.9975 83.4533 90.6375 76.456 91.9175 65.448L92.8135 52.648L92.6855 48.808L92.8135 46.504L92.9415 44.2L92.5575 39.592L92.3015 35.752C92.3015 35.24 91.9602 34.9413 91.2775 34.856H88.2055L86.2855 34.6L83.5975 34.984L81.5495 35.24C81.0375 35.24 80.4402 35.0693 79.7575 34.728L78.2215 34.088C77.6242 33.6613 77.1548 33.2347 76.8135 32.808C76.4722 32.3813 76.0028 32.0827 75.4055 31.912C75.4055 31.144 75.5762 30.632 75.9175 30.376C74.6375 29.6933 73.9975 29.096 73.9975 28.584C74.5095 27.9867 74.9788 27.5173 75.4055 27.176L77.1975 25.64L76.6855 23.208L77.0695 22.312C77.3255 22.056 77.8375 21.928 78.6055 21.928H80.0135L85.1335 22.056C87.0108 22.056 88.6322 22.2267 89.9975 22.568ZM83.0855 43.432C83.4268 44.6267 83.2988 45.4373 82.7015 45.864C82.1895 46.2053 81.5495 46.4187 80.7815 46.504L79.7575 46.248C79.6722 46.0773 79.6295 45.9493 79.6295 45.864C79.3735 45.2667 79.2455 44.8827 79.2455 44.712C80.0135 43.432 81.0375 43.0053 82.3175 43.432H83.0855ZM87.4375 66.472C86.2428 66.8987 85.6455 66.3867 85.6455 64.936C85.6455 64.168 85.7308 63.5707 85.9015 63.144C85.9015 62.632 86.2428 62.376 86.9255 62.376C87.2668 62.7173 87.4375 63.0587 87.4375 63.4L87.1815 64.296L87.0535 65.192L87.4375 66.472ZM93.7095 93.992C93.1975 94.504 92.4722 94.2907 91.5335 93.352C91.2775 92.6693 91.3628 92.1147 91.7895 91.688C92.3015 91.432 92.8988 91.432 93.5815 91.688C93.8375 91.8587 94.0508 92.2427 94.2215 92.84C94.2215 93.352 94.0508 93.736 93.7095 93.992ZM138.894 59.304L138.126 59.56C137.272 58.9627 136.846 58.152 136.846 57.128C136.846 56.5307 137.102 55.976 137.614 55.464H138.254L138.638 55.976L139.021 57L139.278 58.152L138.894 59.304ZM148.878 21.928L148.494 22.44H147.598L148.11 21.928H148.878ZM192.992 7.848H195.296C195.978 7.93333 196.576 8.18933 197.088 8.616C198.624 10.0667 200.202 12.2427 201.824 15.144L208.352 27.56C209.205 28.6693 210.186 30.2053 211.296 32.168C212.064 33.5333 212.832 34.856 213.6 36.136L218.592 44.968L219.744 46.632L220.768 48.04L221.152 48.68L221.664 49.448L226.016 56.36L227.168 57.512L228.832 59.944L230.88 62.888C232.16 64.68 233.781 66.1307 235.744 67.24V68.52C234.122 71.08 231.306 74.024 227.296 77.352L218.208 85.544L215.264 88.488C214.325 89.4267 213.216 89.8533 211.936 89.768L211.424 89.384L210.4 87.72C209.973 87.1227 209.589 86.7387 209.248 86.568L207.968 85.416L205.536 82.088C204.853 81.064 203.957 80.2107 202.848 79.528C200.544 78.248 197.685 77.608 194.272 77.608L189.024 78.12L183.904 78.632L182.24 78.376C181.642 78.12 181.13 78.0773 180.704 78.248L178.912 79.4C178.314 79.656 177.845 80.1253 177.503 80.808C177.248 81.4053 176.864 82.1307 176.352 82.984C176.266 83.1547 176.138 83.368 175.968 83.624L175.456 85.672C175.456 86.7813 175.626 87.72 175.968 88.488C175.797 88.6587 175.669 88.7867 175.583 88.872C175.072 89.384 174.645 89.768 174.304 90.024L172.64 89.512L171.488 89H169.952L167.008 89.128L164.064 88.744C163.296 88.488 162.613 87.9333 162.016 87.08C161.418 86.1413 161.12 85.2453 161.12 84.392C161.12 83.7093 161.376 82.7707 161.888 81.576L163.552 78.248L170.08 61.992L181.984 35.24L185.184 27.56C185.952 25.1707 186.592 22.5253 187.104 19.624L188.256 17.32L188.64 15.016L190.432 11.688L191.328 9.768C191.754 8.744 192.309 8.104 192.992 7.848ZM190.944 50.856C191.2 50.2587 191.2 49.576 190.944 48.808C190.773 48.296 190.389 48.04 189.792 48.04C189.024 48.04 188.512 48.296 188.256 48.808L187.488 51.752C187.146 52.4347 186.677 53.0747 186.08 53.672L184.416 55.848L184.032 58.024C184.032 59.1333 183.904 59.8587 183.648 60.2C183.392 60.456 183.306 60.84 183.392 61.352L184.288 61.992L186.72 62.12C187.914 62.12 188.853 62.248 189.536 62.504L191.712 63.144L193.76 63.4C194.784 63.4 195.296 63.0587 195.296 62.376C195.296 61.6933 195.082 60.9253 194.656 60.072L193.76 57.64C193.589 57.0427 193.034 56.0187 192.096 54.568C191.242 53.032 190.858 51.7947 190.944 50.856ZM194.528 5.28799C194.101 4.86133 194.016 4.26399 194.272 3.49599L195.296 2.98399L196.319 3.49599C196.576 4.00799 196.576 4.51999 196.319 5.032C196.234 5.37333 195.936 5.58666 195.424 5.672L194.528 5.28799ZM208.608 3.752C208.864 4.008 208.906 4.392 208.736 4.904L207.712 5.8L206.304 6.056C205.024 6.056 204.128 5.45866 203.616 4.26399C203.872 3.83733 204.341 3.58133 205.024 3.49599L206.816 3.24C207.584 3.24 208.181 3.41066 208.608 3.752ZM227.808 44.072C227.381 44.1573 227.04 44.1147 226.784 43.944L225.888 43.304C225.205 43.048 224.394 42.0667 223.456 40.36C222.858 39.336 222.389 38.7387 222.048 38.568C221.706 38.312 221.493 37.8 221.408 37.032C221.664 36.3493 221.92 35.8373 222.176 35.496C222.517 35.0693 222.944 34.856 223.456 34.856C224.906 34.856 226.058 35.496 226.912 36.776C227.85 38.056 228.32 39.5067 228.32 41.128C228.32 42.3227 228.149 43.304 227.808 44.072ZM206.56 94.888L206.048 92.712C206.218 92.1147 206.389 91.7307 206.56 91.56L207.328 91.304C208.01 91.56 208.352 92.0293 208.352 92.712C208.352 93.1387 208.096 93.864 207.584 94.888C207.413 94.9733 207.242 95.016 207.072 95.016L206.56 94.888ZM196.064 99.24V98.216C196.234 97.8747 196.405 97.704 196.576 97.704L196.832 98.728L196.576 99.112L196.064 99.24ZM188.896 90.92C188.64 91.176 188.256 91.2187 187.744 91.048C187.488 90.9627 187.274 90.7067 187.104 90.28C186.848 88.8293 187.274 87.72 188.384 86.952C188.981 86.952 189.408 87.0373 189.664 87.208L190.048 87.976L190.176 88.616C190.176 89.384 189.749 90.152 188.896 90.92ZM165.344 96.936C164.746 96.936 164.405 96.7653 164.32 96.424C164.064 95.656 164.234 95.272 164.832 95.272C165.258 95.272 165.6 95.3147 165.856 95.4L165.984 95.528L166.112 96.04L165.344 96.936ZM262.502 7.848C263.526 8.104 263.782 8.61599 263.27 9.384C262.331 10.4933 261.307 11.048 260.198 11.048C259.43 11.048 259.174 10.4933 259.43 9.384C259.686 8.872 260.112 8.44533 260.71 8.104C261.307 7.76266 261.904 7.67733 262.502 7.848ZM267.622 16.296L272.229 16.68L277.094 17.064H284.39L287.846 16.936C288.528 16.936 289.211 16.936 289.894 16.936C290.662 16.68 291.174 16.5093 291.43 16.424C292.027 16.168 292.838 16.2533 293.862 16.68L296.038 17.192C296.806 17.192 297.659 17.5333 298.598 18.216L301.158 20.264L307.046 23.976C309.008 25.3413 310.63 26.92 311.91 28.712L313.83 31.528C314.512 32.4667 315.067 33.704 315.494 35.24C315.92 36.776 316.134 38.3973 316.134 40.104C316.134 41.64 316.048 42.792 315.878 43.56C315.707 44.2427 315.408 44.9253 314.982 45.608L314.214 47.016L310.757 59.304L310.63 60.84C310.63 62.0347 310.544 62.8027 310.374 63.144L308.838 65.576L306.918 67.496L305.382 67.88L303.718 68.264L302.182 69.288H300.646L297.318 71.208C296.294 71.8907 295.696 72.8293 295.526 74.024L295.91 75.304L296.934 77.224L299.238 80.808C300.262 81.064 300.902 81.3627 301.158 81.704L303.59 83.752L306.278 85.032L308.198 85.544C309.136 85.544 309.947 85.288 310.63 84.776C311.312 84.1787 311.824 83.4533 312.166 82.6L312.806 80.424C312.806 78.4613 311.824 77.48 309.862 77.48C309.435 77.48 308.88 77.736 308.198 78.248L306.918 79.4C306.32 79.7413 305.638 79.7413 304.87 79.4C304.443 79.0587 304.102 78.504 303.846 77.736C303.846 74.408 305.424 71.848 308.582 70.056C309.776 69.4587 311.014 69.16 312.294 69.16C315.195 69.16 317.371 70.3973 318.822 72.872C319.248 73.8107 319.547 74.9627 319.718 76.328L319.334 79.016L318.822 81.064L316.902 85.672C316.219 87.208 315.408 88.6587 314.47 90.024L312.678 91.816C312.336 92.2427 311.91 92.584 311.398 92.84L306.021 93.736L304.486 93.608C303.803 93.608 302.864 93.864 301.67 94.376L299.622 94.632H297.83H293.99C293.392 94.2907 292.923 93.9493 292.582 93.608C292.326 93.2667 291.942 93.096 291.43 93.096V91.816L290.022 90.024L288.486 88.232L286.182 83.112C285.328 81.1493 284.176 79.656 282.726 78.632C282.214 78.376 281.702 78.504 281.19 79.016C280.678 79.528 280.422 80.1253 280.422 80.808L280.166 88.744C279.568 89.0853 279.014 89.2987 278.502 89.384L275.046 90.024L272.229 90.28C270.352 90.28 268.646 89.9813 267.11 89.384L263.014 88.232L258.662 87.08C257.894 86.9093 257.04 86.9947 256.102 87.336L253.542 88.232L251.878 88.488C250.939 88.488 250.47 88.0613 250.47 87.208L251.238 80.936C251.579 79.4 251.878 77.3093 252.134 74.664C252.39 72.0187 252.518 68.6907 252.518 64.68L252.902 51.24L253.158 48.424L253.286 45.352V41.896C253.286 40.7867 253.286 39.6773 253.286 38.568C253.115 37.6293 253.03 36.9467 253.03 36.52L252.518 26.28V21.672C252.518 20.2213 252.987 18.9413 253.926 17.832C254.608 17.064 255.675 16.5947 257.126 16.424L258.918 16.552L260.71 16.808C261.222 16.808 261.734 16.808 262.246 16.808C263.099 16.808 263.782 16.7653 264.294 16.68L267.622 16.296ZM290.406 29.096C289.04 28.072 287.888 27.816 286.95 28.328L284.774 29.48C284.091 29.736 283.579 30.12 283.238 30.632C282.982 31.144 282.854 32.2107 282.854 33.832L282.342 36.008C281.744 37.544 281.446 39.0373 281.446 40.488L281.83 44.84L282.214 49.32V56.232C282.214 58.6213 282.512 61.1813 283.11 63.912C283.366 64.2533 283.536 64.4667 283.622 64.552C283.792 64.6373 283.92 64.68 284.006 64.68L293.094 60.2L296.166 57.896L300.646 54.696C302.267 53.672 303.59 52.4347 304.614 50.984C304.784 50.8133 304.955 50.3013 305.126 49.448C305.126 48.5947 305.211 48.0827 305.382 47.912C305.552 47.7413 305.68 47.656 305.766 47.656C306.278 47.4 306.704 47.2293 307.046 47.144C307.387 47.0587 307.643 46.9733 307.814 46.888C308.07 46.7173 308.24 46.5893 308.326 46.504V43.816C308.326 42.792 308.24 41.8533 308.07 41C307.643 38.952 306.704 37.288 305.254 36.008V34.728C304.656 33.8747 303.888 33.1493 302.95 32.552C301.926 32.3813 301.158 32.168 300.646 31.912C299.963 31.144 298.768 30.5893 297.062 30.248L292.966 29.352H291.302C290.79 29.2667 290.491 29.1813 290.406 29.096ZM292.966 55.208C292.454 55.2933 291.984 55.1227 291.558 54.696C291.216 54.184 291.216 53.7147 291.558 53.288L292.326 52.008C292.752 51.3253 293.222 50.984 293.734 50.984L294.758 51.112L295.142 52.264L294.758 53.544C294.246 54.3973 293.648 54.952 292.966 55.208ZM288.614 96.424C287.76 96.424 287.248 96.3387 287.078 96.168C286.907 95.7413 286.992 95.4 287.334 95.144C287.675 94.9733 287.888 94.76 287.974 94.504C288.144 94.3333 288.272 94.2053 288.358 94.12L289.126 94.632C289.382 95.5707 289.211 96.168 288.614 96.424ZM268.39 94.632L269.158 94.376L269.542 94.504L269.158 95.4L268.39 94.632ZM261.734 92.456C261.904 92.2853 262.459 92.2 263.398 92.2C264.422 92.3707 265.318 92.6693 266.086 93.096V93.864H263.91C263.142 93.864 262.502 93.7787 261.99 93.608C261.563 93.5227 261.478 93.1387 261.734 92.456ZM244.07 74.28C244.07 73.768 244.24 73.3413 244.582 73L246.118 71.592L246.885 71.848L245.478 74.92L244.966 75.432L244.07 74.28ZM243.814 66.984V68.776L243.046 69.16L242.534 69.288L241.766 68.392L240.998 67.24C241.168 66.8987 241.339 66.6853 241.51 66.6L242.278 66.216L243.046 66.984H243.814ZM340.873 22.568L349.193 24.488L356.745 25L359.944 25.256H363.401H365.577C366.43 25.256 367.454 25.1707 368.649 25L371.977 24.744L375.433 25L378.249 25.256H381.449L384.777 25.128L387.721 25.256L389.257 26.536L390.665 26.152L391.561 25.64L395.145 25.768L398.857 25.896H400.393C400.905 25.896 401.502 25.8107 402.185 25.64L404.105 25.256H405.257C405.513 25.6827 405.726 26.408 405.897 27.432L405.513 31.4C405.513 32.0827 405.726 32.7227 406.153 33.32C406.579 33.9173 406.878 34.6853 407.049 35.624L406.665 36.392C405.555 36.648 404.489 36.8613 403.465 37.032C402.441 37.2027 401.289 37.288 400.009 37.288H397.705C397.449 37.3733 397.107 37.4587 396.681 37.544C396.254 37.544 395.785 37.672 395.273 37.928L392.329 38.568C390.366 38.1413 388.659 37.928 387.209 37.928C385.929 37.928 384.649 38.184 383.369 38.696C382.686 38.952 382.174 39.5493 381.833 40.488L381.449 43.176L379.529 59.56L379.401 69.032C379.401 70.056 379.358 71.6347 379.273 73.768C379.187 75.816 379.145 77.3947 379.145 78.504L378.633 81.704L378.249 85.416L378.377 87.336L378.761 89.512C378.761 90.1093 378.419 90.4507 377.737 90.536L374.281 90.792H372.233L370.825 90.28L368.009 89.768C366.729 89.768 365.747 89.8533 365.065 90.024L361.993 90.28C360.371 90.28 359.134 90.2373 358.281 90.152C357.427 90.0667 356.019 89.8107 354.057 89.384L340.873 86.44C340.873 83.4533 341.513 76.456 342.793 65.448L343.689 52.648L343.561 48.808L343.689 46.504L343.817 44.2L343.433 39.592L343.177 35.752C343.177 35.24 342.835 34.9413 342.153 34.856H339.081L337.161 34.6L334.473 34.984L332.425 35.24C331.913 35.24 331.315 35.0693 330.633 34.728L329.097 34.088C328.499 33.6613 328.03 33.2347 327.689 32.808C327.347 32.3813 326.878 32.0827 326.281 31.912C326.281 31.144 326.451 30.632 326.793 30.376C325.513 29.6933 324.873 29.096 324.873 28.584C325.385 27.9867 325.854 27.5173 326.281 27.176L328.073 25.64L327.561 23.208L327.945 22.312C328.201 22.056 328.713 21.928 329.481 21.928H330.889L336.009 22.056C337.886 22.056 339.507 22.2267 340.873 22.568ZM333.961 43.432C334.302 44.6267 334.174 45.4373 333.577 45.864C333.065 46.2053 332.425 46.4187 331.657 46.504L330.633 46.248C330.547 46.0773 330.505 45.9493 330.505 45.864C330.249 45.2667 330.121 44.8827 330.121 44.712C330.889 43.432 331.913 43.0053 333.193 43.432H333.961ZM338.312 66.472C337.118 66.8987 336.521 66.3867 336.521 64.936C336.521 64.168 336.606 63.5707 336.777 63.144C336.777 62.632 337.118 62.376 337.801 62.376C338.142 62.7173 338.312 63.0587 338.312 63.4L338.057 64.296L337.929 65.192L338.312 66.472ZM344.585 93.992C344.073 94.504 343.347 94.2907 342.409 93.352C342.153 92.6693 342.238 92.1147 342.665 91.688C343.177 91.432 343.774 91.432 344.457 91.688C344.713 91.8587 344.926 92.2427 345.097 92.84C345.097 93.352 344.926 93.736 344.585 93.992ZM389.769 59.304L389.001 59.56C388.147 58.9627 387.721 58.152 387.721 57.128C387.721 56.5307 387.977 55.976 388.489 55.464H389.129L389.513 55.976L389.896 57L390.153 58.152L389.769 59.304ZM399.753 21.928L399.369 22.44H398.473L398.985 21.928H399.753Z" fill="white"/>
</svg>
